<svg width="24" height="26" viewBox="0 0 52 62" fill="none" xmlns="http://www.w3.org/2000/svg">
<g filter="url(#filter0_d_113_2)">
<ellipse cx="26" cy="21.6667" rx="20" ry="21.6667" fill="#F1D699" fill-opacity="0.5" shape-rendering="crispEdges"/>
</g>
<g filter="url(#filter1_d_113_2)">
<path d="M41 18.6665C41 30.3332 26 40.3332 26 40.3332C26 40.3332 11 30.3332 11 18.6665C11 14.6883 12.5804 10.8729 15.3934 8.0599C18.2064 5.24686 22.0218 3.6665 26 3.6665C29.9782 3.6665 33.7936 5.24686 36.6066 8.0599C39.4196 10.8729 41 14.6883 41 18.6665Z" stroke="#F2A800" stroke-width="2" stroke-linecap="round" stroke-linejoin="round"/>
<path d="M26 23.6665C28.7614 23.6665 31 21.4279 31 18.6665C31 15.9051 28.7614 13.6665 26 13.6665C23.2386 13.6665 21 15.9051 21 18.6665C21 21.4279 23.2386 23.6665 26 23.6665Z" stroke="#F2A800" stroke-width="2" stroke-linecap="round" stroke-linejoin="round"/>
</g>
<defs>
<filter id="filter0_d_113_2" x="2" y="0" width="48" height="51.3335" filterUnits="userSpaceOnUse" color-interpolation-filters="sRGB">
<feFlood flood-opacity="0" result="BackgroundImageFix"/>
<feColorMatrix in="SourceAlpha" type="matrix" values="0 0 0 0 0 0 0 0 0 0 0 0 0 0 0 0 0 0 127 0" result="hardAlpha"/>
<feOffset dy="4"/>
<feGaussianBlur stdDeviation="2"/>
<feComposite in2="hardAlpha" operator="out"/>
<feColorMatrix type="matrix" values="0 0 0 0 0 0 0 0 0 0 0 0 0 0 0 0 0 0 0.25 0"/>
<feBlend mode="normal" in2="BackgroundImageFix" result="effect1_dropShadow_113_2"/>
<feBlend mode="normal" in="SourceGraphic" in2="effect1_dropShadow_113_2" result="shape"/>
</filter>
<filter id="filter1_d_113_2" x="-4" y="2" width="60" height="60" filterUnits="userSpaceOnUse" color-interpolation-filters="sRGB">
<feFlood flood-opacity="0" result="BackgroundImageFix"/>
<feColorMatrix in="SourceAlpha" type="matrix" values="0 0 0 0 0 0 0 0 0 0 0 0 0 0 0 0 0 0 127 0" result="hardAlpha"/>
<feOffset dy="10"/>
<feGaussianBlur stdDeviation="5"/>
<feComposite in2="hardAlpha" operator="out"/>
<feColorMatrix type="matrix" values="0 0 0 0 0 0 0 0 0 0 0 0 0 0 0 0 0 0 0.25 0"/>
<feBlend mode="normal" in2="BackgroundImageFix" result="effect1_dropShadow_113_2"/>
<feBlend mode="normal" in="SourceGraphic" in2="effect1_dropShadow_113_2" result="shape"/>
</filter>
</defs>
</svg>
