<svg width="36" height="44" viewBox="0 0 36 44" fill="none" xmlns="http://www.w3.org/2000/svg">
<path d="M18 9.5C16.4548 9.5 14.9444 9.9582 13.6596 10.8166C12.3748 11.6751 11.3735 12.8952 10.7822 14.3228C10.1909 15.7503 10.0362 17.3212 10.3376 18.8366C10.6391 20.3521 11.3831 21.7442 12.4757 22.8368C13.5683 23.9294 14.9604 24.6734 16.4759 24.9749C17.9913 25.2763 19.5622 25.1216 20.9897 24.5303C22.4173 23.939 23.6374 22.9377 24.4959 21.6529C25.3543 20.3681 25.8125 18.8577 25.8125 17.3125C25.8125 15.2405 24.9894 13.2534 23.5243 11.7882C22.0591 10.3231 20.072 9.5 18 9.5ZM18 22C17.0729 22 16.1666 21.7251 15.3958 21.21C14.6249 20.6949 14.0241 19.9629 13.6693 19.1063C13.3145 18.2498 13.2217 17.3073 13.4026 16.398C13.5834 15.4887 14.0299 14.6535 14.6854 13.9979C15.341 13.3424 16.1762 12.8959 17.0855 12.7151C17.9948 12.5342 18.9373 12.627 19.7938 12.9818C20.6504 13.3366 21.3824 13.9374 21.8975 14.7083C22.4126 15.4791 22.6875 16.3854 22.6875 17.3125C22.6875 18.5557 22.1936 19.748 21.3146 20.6271C20.4355 21.5061 19.2432 22 18 22ZM18 0.125C13.4432 0.130169 9.07447 1.94265 5.85231 5.16481C2.63015 8.38697 0.817669 12.7557 0.8125 17.3125C0.8125 23.4453 3.64648 29.9453 9.01562 36.1113C11.4282 38.8976 14.1435 41.4065 17.1113 43.5918C17.374 43.7758 17.687 43.8746 18.0078 43.8746C18.3286 43.8746 18.6416 43.7758 18.9043 43.5918C21.8667 41.4056 24.5767 38.8967 26.9844 36.1113C32.3457 29.9453 35.1875 23.4453 35.1875 17.3125C35.1823 12.7557 33.3699 8.38697 30.1477 5.16481C26.9255 1.94265 22.5568 0.130169 18 0.125ZM18 40.3594C14.7715 37.8203 3.9375 28.4941 3.9375 17.3125C3.9375 13.5829 5.41908 10.006 8.05631 7.36881C10.6935 4.73158 14.2704 3.25 18 3.25C21.7296 3.25 25.3065 4.73158 27.9437 7.36881C30.5809 10.006 32.0625 13.5829 32.0625 17.3125C32.0625 28.4902 21.2285 37.8203 18 40.3594Z" fill="#598BD7"/>
</svg>
