<svg width="39" height="42" viewBox="0 0 39 42" fill="none" xmlns="http://www.w3.org/2000/svg">
<path d="M37.5106 29.2353C37.5106 29.6122 37.3597 29.9721 37.0935 30.2362C36.8276 30.5002 36.4686 30.6471 36.0957 30.6471H2.90426C2.53145 30.6471 2.17238 30.5002 1.90645 30.2362M37.5106 29.2353L1.90645 30.2362M37.5106 29.2353V25.9412C37.5106 25.5643 37.3597 25.2044 37.0936 24.9403C36.8276 24.6763 36.4686 24.5294 36.0957 24.5294H2.90426C2.53143 24.5294 2.17237 24.6763 1.90646 24.9402C1.64028 25.2044 1.48936 25.5643 1.48936 25.9412V29.2353C1.48936 29.6122 1.64028 29.9721 1.90645 30.2362M37.5106 29.2353L1.90645 30.2362M28.0426 24.0588H29.0426H36.0957C36.6032 24.0588 37.0884 24.259 37.4449 24.6128C37.8012 24.9664 38 25.4444 38 25.9412V29.2353C38 29.7321 37.8012 30.21 37.4449 30.5636C37.0884 30.9175 36.6032 31.1176 36.0957 31.1176H34.0213H33.0213V32.1176V40.7647C33.0213 40.8247 32.9974 40.8837 32.9523 40.9284L33.6567 41.6382L32.9523 40.9284C32.907 40.9734 32.8439 41 32.7766 41C32.7093 41 32.6462 40.9734 32.6009 40.9284C32.5558 40.8837 32.5319 40.8247 32.5319 40.7647V32.1176V31.1176H31.5319H7.46809H6.46809V32.1176V40.7647C6.46809 40.8247 6.44416 40.8837 6.3991 40.9284C6.35379 40.9734 6.29073 41 6.2234 41C6.15608 41 6.09302 40.9734 6.04771 40.9284C6.00265 40.8837 5.97872 40.8247 5.97872 40.7647V32.1176V31.1176H4.97872H2.90426C2.39679 31.1176 1.91161 30.9175 1.55506 30.5636L0.855704 31.2683L1.55506 30.5636C1.19877 30.21 1 29.7321 1 29.2353V25.9412C1 25.4444 1.19877 24.9664 1.55506 24.6128C1.91161 24.259 2.39678 24.0588 2.90426 24.0588H9.95745H10.9574V23.0588V15.6471V14.6471H9.95745H6.2234C5.71593 14.6471 5.23076 14.4469 4.87421 14.0931C4.51792 13.7395 4.31915 13.2615 4.31915 12.7647V2.88235C4.31915 2.38558 4.51792 1.9076 4.87421 1.554C5.23076 1.20014 5.71593 1 6.2234 1H32.7766C33.2841 1 33.7692 1.20014 34.1258 1.554C34.4821 1.9076 34.6809 2.38558 34.6809 2.88235V12.7647C34.6809 13.2615 34.4821 13.7395 34.1258 14.0931C33.7692 14.4469 33.2841 14.6471 32.7766 14.6471H29.0426H28.0426V15.6471V23.0588V24.0588ZM5.22561 1.88141L5.93003 2.59119L5.2256 1.88141C4.95943 2.14558 4.80851 2.50548 4.80851 2.88235V12.7647C4.80851 13.1416 4.95943 13.5015 5.2256 13.7656L5.93003 13.0559L5.22561 13.7656C5.49152 14.0296 5.85059 14.1765 6.2234 14.1765H32.7766C33.1494 14.1765 33.5085 14.0296 33.7744 13.7656C34.0406 13.5015 34.1915 13.1416 34.1915 12.7647V2.88235C34.1915 2.50547 34.0406 2.14557 33.7744 1.88143C33.5085 1.6175 33.1494 1.47059 32.7766 1.47059H6.2234C5.85059 1.47059 5.49152 1.6175 5.22561 1.88141ZM12.4468 14.6471H11.4468V15.6471V23.0588V24.0588H12.4468H26.5532H27.5532V23.0588V15.6471V14.6471H26.5532H12.4468Z" fill="black" stroke="#598BD7" stroke-width="2"/>
</svg>
